<svg width="45" height="45" viewBox="0 0 45 45" fill="none" xmlns="http://www.w3.org/2000/svg">
<path d="M35 0H10C4.47715 0 0 4.47715 0 10V35C0 40.5228 4.47715 45 10 45H35C40.5228 45 45 40.5228 45 35V10C45 4.47715 40.5228 0 35 0Z" fill="black"/>
<path fill-rule="evenodd" clip-rule="evenodd" d="M30.5 31.667H30.158L30.494 29.652C30.498 29.6292 30.5 29.6061 30.5 29.583V20.833C30.498 19.6833 29.567 18.7517 28.417 18.75H28V12.083C27.998 10.9333 27.067 10.0017 25.917 10H17.583C16.433 10.0017 15.502 10.9333 15.5 12.083V16.483C14.789 16.0679 13.882 16.2367 13.368 16.8796C12.854 17.5225 12.889 18.445 13.45 19.047C13.166 19.2821 13.001 19.6313 13 20V20.833C13.001 21.1414 13.117 21.4383 13.325 21.666C13.117 21.894 13.001 22.1913 13 22.5V23.333C13.001 23.6414 13.117 23.9383 13.325 24.166C13.117 24.394 13.001 24.6913 13 25V25.833C13 26.5234 13.56 27.083 14.25 27.083H15.5V27.916C15.501 29.0661 16.433 29.9983 17.583 30H18.116L18.671 31.667H18C17.54 31.667 17.167 32.0399 17.167 32.5V34.167C17.167 34.6271 17.54 35 18 35H30.5C30.96 35 31.333 34.6271 31.333 34.167V32.5C31.333 32.0399 30.96 31.667 30.5 31.667ZM19.25 10.833H24.25V11.25C24.25 11.4803 24.063 11.667 23.833 11.667H19.667C19.437 11.667 19.25 11.4803 19.25 11.25V10.833ZM14.25 21.25H17.167C17.627 21.25 18.001 20.8768 18.001 20.4165C18.001 19.9562 17.627 19.583 17.167 19.583H14.25C14.02 19.583 13.833 19.7697 13.833 20V20.833C13.833 21.0633 14.02 21.25 14.25 21.25ZM18 22.917C18 23.1379 17.912 23.3498 17.756 23.506C17.6 23.6622 17.388 23.75 17.167 23.75H14.25C14.139 23.75 14.033 23.7061 13.955 23.6279C13.877 23.5497 13.833 23.4436 13.833 23.333V22.5C13.833 22.2697 14.02 22.083 14.25 22.083H17.167C17.388 22.083 17.6 22.1709 17.756 22.3273C17.913 22.4838 18 22.6959 18 22.917ZM15.5 17.916C15.5 17.4559 15.127 17.083 14.667 17.083C14.207 17.083 13.834 17.4559 13.834 17.916C13.834 18.3761 14.207 18.749 14.667 18.749C15.127 18.749 15.5 18.3761 15.5 17.916ZM13.834 25.833V25C13.834 24.7697 14.021 24.583 14.251 24.583H17.167C17.627 24.583 18.001 24.9562 18.001 25.4165C18.001 25.8768 17.627 26.25 17.167 26.25H14.25C14.02 26.25 13.833 26.0633 13.833 25.833H13.834ZM16.334 27.083V27.916L16.333 27.917C16.333 28.6074 16.893 29.167 17.583 29.167H25.917C26.607 29.167 27.167 28.6074 27.167 27.917V22.917H26.75C25.599 22.917 24.667 21.9842 24.667 20.8335C24.667 19.6828 25.599 18.75 26.75 18.75H27.167V12.083C27.167 11.7515 27.035 11.4335 26.801 11.1991C26.566 10.9647 26.249 10.833 25.917 10.833H25.084V11.25C25.084 11.9404 24.524 12.5 23.834 12.5H19.667C19.335 12.5003 19.017 12.3687 18.782 12.1342C18.548 11.8998 18.416 11.5817 18.416 11.25V10.833H17.583C16.893 10.833 16.333 11.3926 16.333 12.083V18.75H17.167C17.861 18.7476 18.484 19.1779 18.727 19.8283C18.971 20.4787 18.783 21.2119 18.258 21.666C18.623 21.9785 18.834 22.4352 18.834 22.916C18.834 23.3968 18.623 23.8535 18.258 24.166C18.784 24.6199 18.972 25.3536 18.729 26.0045C18.485 26.6555 17.862 27.0858 17.167 27.083H16.334ZM19 30H25.922C27.07 29.9956 27.998 29.0648 28 27.917V22.5C28 22.2697 27.813 22.083 27.583 22.083H26.75C26.06 22.083 25.5 21.5234 25.5 20.833C25.5 20.1426 26.06 19.583 26.75 19.583H28.417C28.749 19.583 29.066 19.7147 29.301 19.9491C29.535 20.1835 29.667 20.5015 29.667 20.833V29.548L29.314 31.666H19.55L19 30ZM18 32.5V34.167H30.5V32.5H18Z" fill="white"/>
<path d="M19.372 18.872L23.539 14.705L24.128 15.294L19.961 19.465L19.372 18.872Z" fill="white"/>
<path fill-rule="evenodd" clip-rule="evenodd" d="M23.417 20C22.727 20 22.167 19.4404 22.167 18.75C22.167 18.0596 22.727 17.5 23.417 17.5C24.107 17.5 24.667 18.0596 24.667 18.75C24.667 19.4404 24.107 20 23.417 20ZM23.417 19.167C23.647 19.167 23.834 18.9803 23.834 18.75C23.834 18.5197 23.647 18.333 23.417 18.333C23.187 18.333 23 18.5197 23 18.75C23 18.9803 23.187 19.167 23.417 19.167Z" fill="white"/>
<path fill-rule="evenodd" clip-rule="evenodd" d="M21.333 15.417C21.333 16.1073 20.773 16.667 20.083 16.667C19.393 16.667 18.833 16.1073 18.833 15.417C18.833 14.7266 19.393 14.167 20.083 14.167C20.773 14.167 21.333 14.7266 21.333 15.417ZM20.5 15.417C20.5 15.1867 20.313 15 20.083 15C19.853 15 19.666 15.1867 19.666 15.417C19.666 15.6473 19.853 15.834 20.083 15.834C20.313 15.834 20.5 15.6473 20.5 15.417Z" fill="white"/>
<path d="M21.333 24.167H22.166V25H21.333V24.167Z" fill="white"/>
<path d="M23 24.167H23.833V25H23V24.167Z" fill="white"/>
<path d="M19.667 24.167H20.5V25H19.667V24.167Z" fill="white"/>
</svg>
