<svg width="37" height="37" viewBox="0 0 37 37" fill="none" xmlns="http://www.w3.org/2000/svg">
<path d="M18.5 37C28.717 37 37 28.717 37 18.5C37 8.283 28.717 0 18.5 0C8.283 0 0 8.283 0 18.5C0 28.717 8.283 37 18.5 37Z" fill="white"/>
<path d="M21.727 10.631H19.782C18.795 10.574 17.831 10.9481 17.141 11.6561C16.45 12.3641 16.1 13.337 16.182 14.323V16.023H14.229C14.06 16.023 13.923 16.16 13.923 16.329V18.797C13.923 18.966 14.06 19.103 14.229 19.103H16.185V25.326C16.185 25.495 16.322 25.632 16.491 25.632H19.046C19.215 25.632 19.352 25.495 19.352 25.326V19.1021H21.639C21.808 19.1021 21.945 18.9651 21.945 18.7961V16.331C21.945 16.162 21.808 16.025 21.639 16.025H19.346V14.5821C19.346 13.8891 19.511 13.536 20.415 13.536H21.725C21.894 13.536 22.031 13.399 22.031 13.23V10.9401C22.032 10.8581 22 10.7801 21.943 10.7221C21.886 10.6641 21.808 10.631 21.727 10.631Z" fill="#3C0AFE"/>
</svg>
