<svg width="37" height="37" viewBox="0 0 37 37" fill="none" xmlns="http://www.w3.org/2000/svg">
<path d="M18.5 37C28.717 37 37 28.717 37 18.5C37 8.283 28.717 0 18.5 0C8.283 0 0 8.283 0 18.5C0 28.717 8.283 37 18.5 37Z" fill="white"/>
<path fill-rule="evenodd" clip-rule="evenodd" d="M15.139 11H21.86C24.145 11.002 25.997 12.854 26 15.139V21.861C25.997 24.146 24.145 25.998 21.86 26H15.139C12.854 25.997 11.002 24.145 11 21.86V15.139C11.003 12.854 12.854 11.003 15.139 11ZM21.86 24.67C23.411 24.668 24.667 23.412 24.669 21.861V15.14C24.667 13.589 23.411 12.333 21.86 12.331H15.139C13.589 12.333 12.333 13.589 12.331 15.139V21.861C12.333 23.411 13.589 24.668 15.139 24.67H21.86Z" fill="#3C0AFE"/>
<path fill-rule="evenodd" clip-rule="evenodd" d="M14.637 18.501C14.636 16.367 16.366 14.636 18.5 14.635C20.634 14.636 22.365 16.366 22.367 18.5C22.367 20.634 20.637 22.365 18.503 22.365C16.368 22.365 14.638 20.636 14.637 18.501ZM15.966 18.501C15.966 19.9 17.1 21.035 18.5 21.035V21.034C19.898 21.032 21.032 19.899 21.034 18.501C21.034 17.102 19.899 15.967 18.5 15.967C17.1 15.967 15.966 17.102 15.966 18.501Z" fill="#3C0AFE"/>
<path d="M22.53 13.507C22.065 13.507 21.665 13.836 21.574 14.292C21.483 14.748 21.727 15.2049 22.157 15.3829C22.586 15.5609 23.082 15.411 23.341 15.024C23.599 14.637 23.549 14.122 23.22 13.793C23.037 13.61 22.789 13.507 22.53 13.507Z" fill="#3C0AFE"/>
</svg>
