<svg width="45" height="45" viewBox="0 0 45 45" fill="none" xmlns="http://www.w3.org/2000/svg">
<path d="M35 0H10C4.47715 0 0 4.47715 0 10V35C0 40.5228 4.47715 45 10 45H35C40.5228 45 45 40.5228 45 35V10C45 4.47715 40.5228 0 35 0Z" fill="#5A31FC"/>
<path fill-rule="evenodd" clip-rule="evenodd" d="M20.815 29.9664L21.144 27.0114C20.606 26.623 20.289 25.9996 20.29 25.3364C20.29 24.1857 21.223 23.2529 22.374 23.2529C23.524 23.2529 24.457 24.1857 24.457 25.3364C24.459 25.9993 24.142 26.6226 23.605 27.0114L23.934 29.9664C23.95 30.1137 23.903 30.2608 23.804 30.3711C23.705 30.4815 23.564 30.5445 23.416 30.5444H21.333C21.185 30.5445 21.044 30.4815 20.945 30.3711C20.846 30.2608 20.799 30.1137 20.815 29.9664ZM23.39 25.1018C23.283 24.6283 22.861 24.2928 22.375 24.2944H22.373C21.887 24.2928 21.465 24.6283 21.358 25.1018C21.25 25.5754 21.485 26.0605 21.923 26.2694C22.122 26.3655 22.238 26.5762 22.214 26.7954L21.914 29.5014H22.834L22.534 26.7954C22.51 26.5762 22.626 26.3655 22.825 26.2694C23.263 26.0605 23.498 25.5754 23.39 25.1018Z" fill="white"/>
<path fill-rule="evenodd" clip-rule="evenodd" d="M29.667 19.0854H31.229C31.368 19.0854 31.501 19.1408 31.599 19.2394C31.697 19.338 31.751 19.4715 31.75 19.6104V32.6274C31.749 33.7773 30.817 34.7093 29.667 34.7104H15.083C13.933 34.7093 13.001 33.7773 13 32.6274V19.6104C12.999 19.4715 13.053 19.338 13.151 19.2394C13.249 19.1408 13.382 19.0854 13.521 19.0854H15.084V17.0024C15.053 14.377 16.436 11.9379 18.705 10.6162C20.974 9.2946 23.778 9.2946 26.046 10.6162C28.315 11.9379 29.698 14.377 29.667 17.0024V19.0854ZM22.379 10.7524C18.927 10.7524 16.129 13.5506 16.129 17.0024L16.125 19.0854H17.166V17.0024C17.166 14.1258 19.498 11.7939 22.375 11.7939C25.251 11.7939 27.583 14.1258 27.583 17.0024V19.0854H28.629V17.0024C28.629 13.5506 25.831 10.7524 22.379 10.7524ZM26.546 17.0024V19.0854H18.208V17.0024C18.185 15.4985 18.974 14.0987 20.272 13.3399C21.571 12.5811 23.178 12.5811 24.477 13.3399C25.775 14.0987 26.564 15.4985 26.541 17.0024H26.546ZM29.671 33.6694C30.246 33.6688 30.712 33.2026 30.713 32.6274L30.708 20.1274H14.041V32.6274C14.042 33.2026 14.508 33.6688 15.083 33.6694H29.671Z" fill="white"/>
</svg>
