<svg width="40" height="40" viewBox="0 0 40 40" fill="none" xmlns="http://www.w3.org/2000/svg">
<path d="M20 40C31.046 40 40 31.046 40 20C40 8.954 31.046 0 20 0C8.954 0 0 8.954 0 20C0 31.046 8.954 40 20 40Z" fill="#5A31FC"/>
<path d="M25.569 20.568L16.517 29.6189C15.941 30.1949 15.008 30.1949 14.432 29.6189C13.856 29.0429 13.856 28.11 14.432 27.534L22.441 19.525L14.432 11.516C13.863 10.939 13.867 10.011 14.44 9.43895C15.013 8.86595 15.94 8.86297 16.517 9.43197L25.569 18.484C26.144 19.06 26.144 19.992 25.569 20.568Z" fill="white"/>
</svg>
