<svg width="45" height="45" viewBox="0 0 45 45" fill="none" xmlns="http://www.w3.org/2000/svg">
<path d="M35 0H10C4.47715 0 0 4.47715 0 10V35C0 40.5228 4.47715 45 10 45H35C40.5228 45 45 40.5228 45 35V10C45 4.47715 40.5228 0 35 0Z" fill="black"/>
<path fill-rule="evenodd" clip-rule="evenodd" d="M12.6 14H32.4C33.84 14.0044 35 15.1683 35 16.604V28.067C35 29.5011 33.83 30.6626 32.4 30.667H12.6C11.17 30.6626 10 29.5011 10 28.067V16.6C10 15.1659 11.17 14.0044 12.6 14ZM32.4 29.629C33.26 29.6279 33.96 28.9292 33.96 28.067V16.604C33.96 15.7418 33.26 15.0431 32.4 15.042H12.6C11.74 15.0453 11.04 15.7433 11.04 16.604V28.067C11.04 28.9277 11.74 29.6257 12.6 29.629H32.4Z" fill="#F8F8FA"/>
<path fill-rule="evenodd" clip-rule="evenodd" d="M10.52 17.125H34.48C34.77 17.125 35 17.3583 35 17.646V20.771C35 21.0587 34.77 21.292 34.48 21.292H10.52C10.23 21.292 10 21.0587 10 20.771V17.646C10 17.3583 10.23 17.125 10.52 17.125ZM11.04 20.25H33.96V18.167H11.04V20.25Z" fill="#F8F8FA"/>
<path d="M19.9 24.417H13.65C13.36 24.417 13.12 24.6503 13.12 24.938C13.12 25.2257 13.36 25.459 13.65 25.459H19.9C20.18 25.459 20.42 25.2257 20.42 24.938C20.42 24.6503 20.18 24.417 19.9 24.417Z" fill="#F8F8FA"/>
<path d="M19.9 26.5H13.65C13.46 26.5 13.2899 26.5993 13.1899 26.7605C13.0999 26.9217 13.0999 27.1203 13.1899 27.2815C13.2899 27.4427 13.46 27.542 13.65 27.542H19.9C20.08 27.542 20.25 27.4427 20.35 27.2815C20.44 27.1203 20.44 26.9217 20.35 26.7605C20.25 26.5993 20.08 26.5 19.9 26.5Z" fill="#F8F8FA"/>
<path fill-rule="evenodd" clip-rule="evenodd" d="M29.27 23.375H30.3101C30.7301 23.375 31.13 23.5402 31.42 23.8341C31.71 24.1281 31.88 24.5267 31.88 24.942V25.98C31.87 26.8426 31.1801 27.5414 30.3101 27.542H29.27C28.41 27.5414 27.71 26.8426 27.71 25.98V24.938C27.71 24.0754 28.41 23.3761 29.27 23.375ZM30.3101 26.496C30.6001 26.496 30.83 26.2627 30.83 25.975V24.942C30.83 24.8038 30.7801 24.6713 30.6801 24.5736C30.5801 24.4759 30.4501 24.421 30.3101 24.421H29.27C28.98 24.421 28.75 24.6543 28.75 24.942V25.975C28.75 26.2627 28.98 26.496 29.27 26.496H30.3101Z" fill="#F8F8FA"/>
</svg>
