<svg width="24" height="24" viewBox="0 0 24 24" fill="none" xmlns="http://www.w3.org/2000/svg">
<path d="M23.663 21.9767L19.214 17.56C20.941 15.4049 21.777 12.6695 21.551 9.91634C21.325 7.16304 20.053 4.60124 17.997 2.75754C15.941 0.913837 13.258 -0.0714607 10.498 0.00403933C7.73898 0.0796393 5.11301 1.21044 3.16101 3.16384C1.20901 5.11724 0.0799927 7.74484 0.00399266 10.5063C-0.0710073 13.2678 0.913 15.9534 2.755 18.0107C4.598 20.068 7.15799 21.3407 9.90899 21.5672C12.66 21.7937 15.393 20.9567 17.547 19.2283L21.96 23.645C22.072 23.7575 22.204 23.8468 22.35 23.9077C22.496 23.9686 22.653 24 22.812 24C22.97 24 23.127 23.9686 23.273 23.9077C23.419 23.8468 23.552 23.7575 23.663 23.645C23.879 23.4212 24 23.1221 24 22.8108C24 22.4996 23.879 22.2005 23.663 21.9767ZM10.819 19.2283C9.158 19.2283 7.53499 18.7355 6.15499 17.8124C4.77399 16.8892 3.69798 15.5771 3.06298 14.0419C2.42698 12.5068 2.26099 10.8175 2.58499 9.18784C2.90899 7.55814 3.70798 6.06114 4.88198 4.88624C6.05698 3.71124 7.552 2.91114 9.18099 2.58694C10.809 2.26274 12.497 2.42914 14.031 3.06504C15.565 3.70094 16.876 4.77774 17.799 6.15934C18.721 7.54094 19.214 9.16524 19.214 10.8269C19.214 13.0551 18.329 15.192 16.755 16.7675C15.18 18.3431 13.045 19.2283 10.819 19.2283Z" fill="white"/>
</svg>
