<svg width="45" height="45" viewBox="0 0 45 45" fill="none" xmlns="http://www.w3.org/2000/svg">
<path d="M35 0H10C4.47715 0 0 4.47715 0 10V35C0 40.5228 4.47715 45 10 45H35C40.5228 45 45 40.5228 45 35V10C45 4.47715 40.5228 0 35 0Z" fill="black"/>
<path fill-rule="evenodd" clip-rule="evenodd" d="M24.362 23.887H27.762C28.693 23.8875 29.447 24.642 29.448 25.573V28.178C29.447 29.1089 28.693 29.8634 27.762 29.864H24.362C23.431 29.8634 22.677 29.1089 22.676 28.178V25.573C22.677 24.642 23.431 23.8875 24.362 23.887ZM27.762 28.638C28.016 28.6374 28.221 28.4318 28.222 28.178V25.573C28.221 25.3191 28.016 25.1135 27.762 25.113H24.362C24.108 25.1135 23.903 25.3191 23.902 25.573V28.178C23.903 28.4318 24.108 28.6374 24.362 28.638H27.762Z" fill="white"/>
<path fill-rule="evenodd" clip-rule="evenodd" d="M34.918 18.85C34.973 18.9404 35.001 19.0443 35 19.15C34.998 20.5778 34.152 21.8693 32.844 22.442C32.848 22.4637 32.85 22.4859 32.849 22.508V33.215C32.848 33.5531 32.574 33.8269 32.236 33.828H12.758C12.42 33.8269 12.146 33.5531 12.145 33.215V22.43C10.843 21.8586 10.001 20.5719 10 19.15C10.001 19.0447 10.03 18.9414 10.082 18.85L13.796 12.312C13.903 12.1191 14.106 11.9996 14.327 12H30.669C30.889 12.0017 31.091 12.1206 31.2 12.312L34.918 18.85ZM30.311 13.231H14.684L11.783 18.344H33.218L30.311 13.231ZM27.792 19.565C27.591 20.6878 26.614 21.5051 25.473 21.5051C24.332 21.5051 23.355 20.6878 23.154 19.565H27.792ZM19.53 21.5051C20.671 21.5051 21.648 20.6881 21.851 19.565H17.208C17.411 20.6881 18.388 21.5051 19.53 21.5051ZM15.91 19.565C15.707 20.6881 14.73 21.5051 13.589 21.5051C12.447 21.5051 11.47 20.6881 11.267 19.565H15.91ZM16.774 32.602H20.3H20.304V25.987C20.304 25.7551 20.212 25.5327 20.048 25.3687C19.884 25.2047 19.662 25.1127 19.43 25.113H17.648C17.416 25.1127 17.194 25.2047 17.03 25.3687C16.866 25.5327 16.774 25.7551 16.774 25.987V32.602ZM31.625 32.602H21.525V25.987C21.525 24.8272 20.585 23.887 19.425 23.887H17.642C16.482 23.887 15.542 24.8272 15.542 25.987V32.607H13.371V22.733C13.443 22.738 13.514 22.738 13.586 22.738C14.78 22.7373 15.895 22.1418 16.559 21.15C17.225 22.1397 18.339 22.7332 19.532 22.7332C20.725 22.7332 21.839 22.1397 22.505 21.15C23.168 22.1398 24.281 22.7337 25.473 22.7337C26.665 22.7337 27.778 22.1398 28.441 21.15C29.106 22.1403 30.221 22.7342 31.414 22.734C31.45 22.734 31.485 22.7327 31.519 22.7315C31.553 22.7302 31.588 22.729 31.623 22.729V32.598L31.625 32.602ZM29.097 19.571C29.298 20.6938 30.274 21.5114 31.414 21.512H31.415C31.414 21.512 31.414 21.512 31.414 21.512C32.556 21.51 33.534 20.6939 33.74 19.571H29.097Z" fill="white"/>
</svg>
