<svg width="37" height="37" viewBox="0 0 37 37" fill="none" xmlns="http://www.w3.org/2000/svg">
<path d="M18.5 37C28.717 37 37 28.717 37 18.5C37 8.283 28.717 0 18.5 0C8.283 0 0 8.283 0 18.5C0 28.717 8.283 37 18.5 37Z" fill="white"/>
<path d="M27 13.538C26.398 13.8 25.762 13.975 25.11 14.056C25.797 13.649 26.31 13.003 26.553 12.243C25.91 12.624 25.207 12.893 24.473 13.037C23.553 12.055 22.126 11.735 20.874 12.23C19.622 12.725 18.8 13.934 18.8 15.28C18.797 15.531 18.823 15.782 18.876 16.028C16.237 15.899 13.777 14.652 12.114 12.599C11.238 14.097 11.679 16.018 13.122 16.983C12.603 16.97 12.095 16.833 11.64 16.583V16.619C11.644 18.18 12.74 19.524 14.268 19.842C13.987 19.916 13.698 19.952 13.408 19.95C13.2 19.954 12.991 19.935 12.787 19.894C13.221 21.228 14.449 22.144 15.852 22.179C14.691 23.087 13.259 23.58 11.785 23.579C11.522 23.578 11.26 23.561 11 23.527C12.5 24.493 14.248 25.005 16.032 24.999C18.513 25.016 20.897 24.038 22.652 22.284C24.406 20.53 25.385 18.146 25.368 15.665C25.368 15.52 25.368 15.38 25.356 15.241C26.003 14.778 26.56 14.201 27 13.538Z" fill="#3C0AFE"/>
</svg>
